<mxfile host="app.diagrams.net" agent="Mozilla/5.0 (Windows NT 10.0; Win64; x64) AppleWebKit/537.36 (KHTML, like Gecko) Chrome/135.0.0.0 Safari/537.36 Edg/135.0.0.0" version="26.2.9" pages="4">
  <diagram name="Page-1" id="LCU8uJ_SsQwmmnyjhHkm">
    <mxGraphModel dx="1434" dy="738" grid="1" gridSize="10" guides="1" tooltips="1" connect="1" arrows="1" fold="1" page="1" pageScale="1" pageWidth="827" pageHeight="1169" math="0" shadow="0">
      <root>
        <mxCell id="0" />
        <mxCell id="1" parent="0" />
        <mxCell id="EpAPcZTs2M48lF6oZYQL-16" style="edgeStyle=orthogonalEdgeStyle;rounded=0;orthogonalLoop=1;jettySize=auto;html=1;" edge="1" parent="1" source="EpAPcZTs2M48lF6oZYQL-1" target="EpAPcZTs2M48lF6oZYQL-2">
          <mxGeometry relative="1" as="geometry" />
        </mxCell>
        <mxCell id="EpAPcZTs2M48lF6oZYQL-1" value="pdf 2 images" style="rounded=0;whiteSpace=wrap;html=1;" vertex="1" parent="1">
          <mxGeometry x="49" y="230" width="120" height="60" as="geometry" />
        </mxCell>
        <mxCell id="EpAPcZTs2M48lF6oZYQL-6" style="edgeStyle=orthogonalEdgeStyle;rounded=0;orthogonalLoop=1;jettySize=auto;html=1;" edge="1" parent="1" source="EpAPcZTs2M48lF6oZYQL-2" target="EpAPcZTs2M48lF6oZYQL-4">
          <mxGeometry relative="1" as="geometry" />
        </mxCell>
        <mxCell id="EpAPcZTs2M48lF6oZYQL-2" value="images to extraction" style="rounded=0;whiteSpace=wrap;html=1;" vertex="1" parent="1">
          <mxGeometry x="230" y="225" width="120" height="60" as="geometry" />
        </mxCell>
        <mxCell id="EpAPcZTs2M48lF6oZYQL-11" value="" style="edgeStyle=orthogonalEdgeStyle;rounded=0;orthogonalLoop=1;jettySize=auto;html=1;" edge="1" parent="1" source="EpAPcZTs2M48lF6oZYQL-3" target="EpAPcZTs2M48lF6oZYQL-12">
          <mxGeometry relative="1" as="geometry">
            <mxPoint x="709" y="255" as="targetPoint" />
          </mxGeometry>
        </mxCell>
        <mxCell id="EpAPcZTs2M48lF6oZYQL-7" style="edgeStyle=orthogonalEdgeStyle;rounded=0;orthogonalLoop=1;jettySize=auto;html=1;entryX=0;entryY=0.5;entryDx=0;entryDy=0;" edge="1" parent="1" source="EpAPcZTs2M48lF6oZYQL-4" target="EpAPcZTs2M48lF6oZYQL-3">
          <mxGeometry relative="1" as="geometry" />
        </mxCell>
        <mxCell id="EpAPcZTs2M48lF6oZYQL-3" value="querying on&lt;br&gt;text" style="rounded=0;whiteSpace=wrap;html=1;" vertex="1" parent="1">
          <mxGeometry x="509" y="225" width="120" height="60" as="geometry" />
        </mxCell>
        <mxCell id="EpAPcZTs2M48lF6oZYQL-4" value="Extracted&lt;br&gt;text" style="text;html=1;align=center;verticalAlign=middle;whiteSpace=wrap;rounded=0;" vertex="1" parent="1">
          <mxGeometry x="409" y="240" width="60" height="30" as="geometry" />
        </mxCell>
        <mxCell id="EpAPcZTs2M48lF6oZYQL-8" value="llm" style="text;html=1;align=center;verticalAlign=middle;resizable=0;points=[];autosize=1;strokeColor=none;fillColor=none;" vertex="1" parent="1">
          <mxGeometry x="259" y="318" width="40" height="30" as="geometry" />
        </mxCell>
        <mxCell id="EpAPcZTs2M48lF6oZYQL-9" value="llm" style="text;html=1;align=center;verticalAlign=middle;resizable=0;points=[];autosize=1;strokeColor=none;fillColor=none;" vertex="1" parent="1">
          <mxGeometry x="549" y="310" width="40" height="30" as="geometry" />
        </mxCell>
        <mxCell id="EpAPcZTs2M48lF6oZYQL-12" value="Response to CSV" style="text;html=1;align=center;verticalAlign=middle;whiteSpace=wrap;rounded=0;" vertex="1" parent="1">
          <mxGeometry x="719" y="240" width="60" height="30" as="geometry" />
        </mxCell>
        <mxCell id="EpAPcZTs2M48lF6oZYQL-15" value="" style="rounded=0;whiteSpace=wrap;html=1;fillColor=none;strokeWidth=6;" vertex="1" parent="1">
          <mxGeometry x="10" y="60" width="820" height="317" as="geometry" />
        </mxCell>
        <mxCell id="EpAPcZTs2M48lF6oZYQL-14" value="&lt;font style=&quot;font-size: 26px;&quot;&gt;streamlit&lt;/font&gt;" style="text;html=1;align=center;verticalAlign=middle;resizable=0;points=[];autosize=1;strokeColor=none;fillColor=none;" vertex="1" parent="1">
          <mxGeometry x="707" y="80" width="120" height="40" as="geometry" />
        </mxCell>
        <mxCell id="mBAHYLQNVwu6yWrNpFYm-2" value="" style="edgeStyle=orthogonalEdgeStyle;rounded=0;orthogonalLoop=1;jettySize=auto;html=1;" edge="1" parent="1" source="mBAHYLQNVwu6yWrNpFYm-1" target="EpAPcZTs2M48lF6oZYQL-3">
          <mxGeometry relative="1" as="geometry" />
        </mxCell>
        <mxCell id="mBAHYLQNVwu6yWrNpFYm-1" value="questions.json" style="text;html=1;align=center;verticalAlign=middle;whiteSpace=wrap;rounded=0;" vertex="1" parent="1">
          <mxGeometry x="529" y="140" width="60" height="30" as="geometry" />
        </mxCell>
      </root>
    </mxGraphModel>
  </diagram>
  <diagram id="WFTujXdkCcAfOyL2HTEC" name="Page-2">
    <mxGraphModel dx="2480" dy="870" grid="1" gridSize="10" guides="1" tooltips="1" connect="1" arrows="1" fold="1" page="1" pageScale="1" pageWidth="827" pageHeight="1169" math="0" shadow="0">
      <root>
        <mxCell id="0" />
        <mxCell id="1" parent="0" />
        <mxCell id="b4iUlOvCb5p-LGXxS3qO-1" style="edgeStyle=orthogonalEdgeStyle;rounded=0;orthogonalLoop=1;jettySize=auto;html=1;" parent="1" source="b4iUlOvCb5p-LGXxS3qO-2" target="b4iUlOvCb5p-LGXxS3qO-4" edge="1">
          <mxGeometry relative="1" as="geometry" />
        </mxCell>
        <mxCell id="b4iUlOvCb5p-LGXxS3qO-2" value="pdf 2 images" style="rounded=0;whiteSpace=wrap;html=1;" parent="1" vertex="1">
          <mxGeometry x="-711" y="310" width="120" height="60" as="geometry" />
        </mxCell>
        <mxCell id="b4iUlOvCb5p-LGXxS3qO-3" style="edgeStyle=orthogonalEdgeStyle;rounded=0;orthogonalLoop=1;jettySize=auto;html=1;" parent="1" source="b4iUlOvCb5p-LGXxS3qO-4" target="b4iUlOvCb5p-LGXxS3qO-8" edge="1">
          <mxGeometry relative="1" as="geometry" />
        </mxCell>
        <mxCell id="b4iUlOvCb5p-LGXxS3qO-4" value="images to query" style="rounded=0;whiteSpace=wrap;html=1;" parent="1" vertex="1">
          <mxGeometry x="-530" y="305" width="120" height="60" as="geometry" />
        </mxCell>
        <mxCell id="b4iUlOvCb5p-LGXxS3qO-5" value="" style="edgeStyle=orthogonalEdgeStyle;rounded=0;orthogonalLoop=1;jettySize=auto;html=1;" parent="1" source="b4iUlOvCb5p-LGXxS3qO-7" target="b4iUlOvCb5p-LGXxS3qO-11" edge="1">
          <mxGeometry relative="1" as="geometry">
            <mxPoint x="-51" y="335" as="targetPoint" />
          </mxGeometry>
        </mxCell>
        <mxCell id="b4iUlOvCb5p-LGXxS3qO-6" style="edgeStyle=orthogonalEdgeStyle;rounded=0;orthogonalLoop=1;jettySize=auto;html=1;entryX=0;entryY=0.5;entryDx=0;entryDy=0;" parent="1" source="b4iUlOvCb5p-LGXxS3qO-8" target="b4iUlOvCb5p-LGXxS3qO-7" edge="1">
          <mxGeometry relative="1" as="geometry" />
        </mxCell>
        <mxCell id="b4iUlOvCb5p-LGXxS3qO-7" value="Consolidation" style="rounded=0;whiteSpace=wrap;html=1;" parent="1" vertex="1">
          <mxGeometry x="-251" y="305" width="120" height="60" as="geometry" />
        </mxCell>
        <mxCell id="b4iUlOvCb5p-LGXxS3qO-8" value="Extracted&lt;br&gt;responses" style="text;html=1;align=center;verticalAlign=middle;whiteSpace=wrap;rounded=0;" parent="1" vertex="1">
          <mxGeometry x="-351" y="320" width="60" height="30" as="geometry" />
        </mxCell>
        <mxCell id="b4iUlOvCb5p-LGXxS3qO-9" value="llm &lt;br&gt;(gemini 1.5 pro)" style="text;html=1;align=center;verticalAlign=middle;resizable=0;points=[];autosize=1;strokeColor=none;fillColor=none;" parent="1" vertex="1">
          <mxGeometry x="-530" y="400" width="110" height="40" as="geometry" />
        </mxCell>
        <mxCell id="b4iUlOvCb5p-LGXxS3qO-10" value="llm&lt;br&gt;(gemini 1.5 flash 8b )" style="text;html=1;align=center;verticalAlign=middle;resizable=0;points=[];autosize=1;strokeColor=none;fillColor=none;" parent="1" vertex="1">
          <mxGeometry x="-261" y="385" width="140" height="40" as="geometry" />
        </mxCell>
        <mxCell id="qIEklSaV3PW1jL7JSs3B-6" style="edgeStyle=none;curved=1;rounded=0;orthogonalLoop=1;jettySize=auto;html=1;entryX=0;entryY=0.5;entryDx=0;entryDy=0;fontSize=12;startSize=8;endSize=8;" edge="1" parent="1" source="b4iUlOvCb5p-LGXxS3qO-11" target="qIEklSaV3PW1jL7JSs3B-1">
          <mxGeometry relative="1" as="geometry" />
        </mxCell>
        <mxCell id="b4iUlOvCb5p-LGXxS3qO-11" value="Response to CSV" style="text;html=1;align=center;verticalAlign=middle;whiteSpace=wrap;rounded=0;" parent="1" vertex="1">
          <mxGeometry x="-41" y="320" width="60" height="30" as="geometry" />
        </mxCell>
        <mxCell id="b4iUlOvCb5p-LGXxS3qO-12" value="" style="rounded=0;whiteSpace=wrap;html=1;fillColor=none;strokeWidth=6;" parent="1" vertex="1">
          <mxGeometry x="-770" y="150" width="1090" height="330" as="geometry" />
        </mxCell>
        <mxCell id="b4iUlOvCb5p-LGXxS3qO-13" value="&lt;font style=&quot;font-size: 26px;&quot;&gt;streamlit&lt;/font&gt;" style="text;html=1;align=center;verticalAlign=middle;resizable=0;points=[];autosize=1;strokeColor=none;fillColor=none;" parent="1" vertex="1">
          <mxGeometry x="-161" y="160" width="120" height="40" as="geometry" />
        </mxCell>
        <mxCell id="b4iUlOvCb5p-LGXxS3qO-15" style="edgeStyle=orthogonalEdgeStyle;rounded=0;orthogonalLoop=1;jettySize=auto;html=1;" parent="1" source="b4iUlOvCb5p-LGXxS3qO-14" target="b4iUlOvCb5p-LGXxS3qO-4" edge="1">
          <mxGeometry relative="1" as="geometry" />
        </mxCell>
        <mxCell id="b4iUlOvCb5p-LGXxS3qO-14" value="question.json" style="text;html=1;align=center;verticalAlign=middle;whiteSpace=wrap;rounded=0;" parent="1" vertex="1">
          <mxGeometry x="-500" y="208" width="60" height="30" as="geometry" />
        </mxCell>
        <mxCell id="R2D0JuvkTBwZxbwNWuAn-1" value="local" style="text;html=1;align=center;verticalAlign=middle;resizable=0;points=[];autosize=1;strokeColor=none;fillColor=none;fontSize=16;" parent="1" vertex="1">
          <mxGeometry x="-686" y="401" width="60" height="30" as="geometry" />
        </mxCell>
        <mxCell id="qIEklSaV3PW1jL7JSs3B-1" value="Rules at documents&amp;nbsp; level" style="rounded=0;whiteSpace=wrap;html=1;" vertex="1" parent="1">
          <mxGeometry x="160" y="305" width="80" height="60" as="geometry" />
        </mxCell>
        <mxCell id="qIEklSaV3PW1jL7JSs3B-2" value="Rules at document&amp;nbsp; level" style="rounded=0;whiteSpace=wrap;html=1;" vertex="1" parent="1">
          <mxGeometry x="380" y="401" width="80" height="60" as="geometry" />
        </mxCell>
        <mxCell id="qIEklSaV3PW1jL7JSs3B-3" value="Rules at policy&lt;br&gt;level" style="rounded=0;whiteSpace=wrap;html=1;" vertex="1" parent="1">
          <mxGeometry x="380" y="220" width="80" height="60" as="geometry" />
        </mxCell>
        <mxCell id="qIEklSaV3PW1jL7JSs3B-5" style="edgeStyle=none;curved=1;rounded=0;orthogonalLoop=1;jettySize=auto;html=1;fontSize=12;startSize=8;endSize=8;" edge="1" parent="1" source="qIEklSaV3PW1jL7JSs3B-4" target="qIEklSaV3PW1jL7JSs3B-1">
          <mxGeometry relative="1" as="geometry" />
        </mxCell>
        <mxCell id="qIEklSaV3PW1jL7JSs3B-4" value="rules for doc" style="text;html=1;align=center;verticalAlign=middle;resizable=0;points=[];autosize=1;strokeColor=none;fillColor=none;fontSize=16;" vertex="1" parent="1">
          <mxGeometry x="145" y="165" width="110" height="30" as="geometry" />
        </mxCell>
      </root>
    </mxGraphModel>
  </diagram>
  <diagram id="varFpK4fNd7-8qJUVhTa" name="Page-3">
    <mxGraphModel dx="2453" dy="1270" grid="0" gridSize="10" guides="1" tooltips="1" connect="1" arrows="1" fold="1" page="0" pageScale="1" pageWidth="1100" pageHeight="850" math="0" shadow="0">
      <root>
        <mxCell id="0" />
        <mxCell id="1" parent="0" />
        <mxCell id="50o6rj9YUYIANKWMHU7v-1" style="edgeStyle=orthogonalEdgeStyle;rounded=0;orthogonalLoop=1;jettySize=auto;html=1;" edge="1" parent="1" source="50o6rj9YUYIANKWMHU7v-2" target="50o6rj9YUYIANKWMHU7v-4">
          <mxGeometry relative="1" as="geometry" />
        </mxCell>
        <mxCell id="50o6rj9YUYIANKWMHU7v-2" value="pdf 2 images" style="rounded=0;whiteSpace=wrap;html=1;" vertex="1" parent="1">
          <mxGeometry x="-434" y="67" width="120" height="60" as="geometry" />
        </mxCell>
        <mxCell id="50o6rj9YUYIANKWMHU7v-3" style="edgeStyle=orthogonalEdgeStyle;rounded=0;orthogonalLoop=1;jettySize=auto;html=1;" edge="1" parent="1" source="50o6rj9YUYIANKWMHU7v-4" target="50o6rj9YUYIANKWMHU7v-8">
          <mxGeometry relative="1" as="geometry" />
        </mxCell>
        <mxCell id="50o6rj9YUYIANKWMHU7v-4" value="images to query" style="rounded=0;whiteSpace=wrap;html=1;" vertex="1" parent="1">
          <mxGeometry x="-253" y="62" width="120" height="60" as="geometry" />
        </mxCell>
        <mxCell id="50o6rj9YUYIANKWMHU7v-5" value="" style="edgeStyle=orthogonalEdgeStyle;rounded=0;orthogonalLoop=1;jettySize=auto;html=1;" edge="1" parent="1" source="50o6rj9YUYIANKWMHU7v-7" target="50o6rj9YUYIANKWMHU7v-11">
          <mxGeometry relative="1" as="geometry">
            <mxPoint x="226" y="92" as="targetPoint" />
          </mxGeometry>
        </mxCell>
        <mxCell id="50o6rj9YUYIANKWMHU7v-6" style="edgeStyle=orthogonalEdgeStyle;rounded=0;orthogonalLoop=1;jettySize=auto;html=1;entryX=0;entryY=0.5;entryDx=0;entryDy=0;" edge="1" parent="1" source="50o6rj9YUYIANKWMHU7v-8" target="50o6rj9YUYIANKWMHU7v-7">
          <mxGeometry relative="1" as="geometry" />
        </mxCell>
        <mxCell id="50o6rj9YUYIANKWMHU7v-7" value="Consolidation" style="rounded=0;whiteSpace=wrap;html=1;" vertex="1" parent="1">
          <mxGeometry x="26" y="62" width="120" height="60" as="geometry" />
        </mxCell>
        <mxCell id="50o6rj9YUYIANKWMHU7v-8" value="Extracted&lt;br&gt;responses" style="text;html=1;align=center;verticalAlign=middle;whiteSpace=wrap;rounded=0;" vertex="1" parent="1">
          <mxGeometry x="-74" y="77" width="60" height="30" as="geometry" />
        </mxCell>
        <mxCell id="50o6rj9YUYIANKWMHU7v-9" value="llm &lt;br&gt;(gemini 1.5 pro)" style="text;html=1;align=center;verticalAlign=middle;resizable=0;points=[];autosize=1;strokeColor=none;fillColor=none;" vertex="1" parent="1">
          <mxGeometry x="-253" y="157" width="110" height="40" as="geometry" />
        </mxCell>
        <mxCell id="50o6rj9YUYIANKWMHU7v-10" value="llm&lt;br&gt;(gemini 1.5 flash 8b )" style="text;html=1;align=center;verticalAlign=middle;resizable=0;points=[];autosize=1;strokeColor=none;fillColor=none;" vertex="1" parent="1">
          <mxGeometry x="16" y="142" width="140" height="40" as="geometry" />
        </mxCell>
        <mxCell id="50o6rj9YUYIANKWMHU7v-11" value="Response to CSV" style="text;html=1;align=center;verticalAlign=middle;whiteSpace=wrap;rounded=0;" vertex="1" parent="1">
          <mxGeometry x="236" y="77" width="60" height="30" as="geometry" />
        </mxCell>
        <mxCell id="50o6rj9YUYIANKWMHU7v-12" value="" style="rounded=0;whiteSpace=wrap;html=1;fillColor=none;strokeWidth=6;" vertex="1" parent="1">
          <mxGeometry x="-493" y="-93" width="820" height="317" as="geometry" />
        </mxCell>
        <mxCell id="50o6rj9YUYIANKWMHU7v-13" value="&lt;font style=&quot;font-size: 26px;&quot;&gt;Python.exe with very simple ui&lt;/font&gt;" style="text;html=1;align=center;verticalAlign=middle;resizable=0;points=[];autosize=1;strokeColor=none;fillColor=none;" vertex="1" parent="1">
          <mxGeometry x="-76" y="-81" width="368" height="43" as="geometry" />
        </mxCell>
        <mxCell id="50o6rj9YUYIANKWMHU7v-14" style="edgeStyle=orthogonalEdgeStyle;rounded=0;orthogonalLoop=1;jettySize=auto;html=1;" edge="1" parent="1" source="50o6rj9YUYIANKWMHU7v-15" target="50o6rj9YUYIANKWMHU7v-4">
          <mxGeometry relative="1" as="geometry" />
        </mxCell>
        <mxCell id="50o6rj9YUYIANKWMHU7v-15" value="question.json" style="text;html=1;align=center;verticalAlign=middle;whiteSpace=wrap;rounded=0;" vertex="1" parent="1">
          <mxGeometry x="-223" y="-35" width="60" height="30" as="geometry" />
        </mxCell>
        <mxCell id="50o6rj9YUYIANKWMHU7v-16" value="local" style="text;html=1;align=center;verticalAlign=middle;resizable=0;points=[];autosize=1;strokeColor=none;fillColor=none;fontSize=16;" vertex="1" parent="1">
          <mxGeometry x="-409" y="158" width="60" height="30" as="geometry" />
        </mxCell>
      </root>
    </mxGraphModel>
  </diagram>
  <diagram id="jeqJesK7xiv1tcHpoecR" name="Page-4">
    <mxGraphModel dx="2453" dy="1270" grid="0" gridSize="10" guides="1" tooltips="1" connect="1" arrows="1" fold="1" page="0" pageScale="1" pageWidth="1100" pageHeight="850" math="0" shadow="0">
      <root>
        <mxCell id="0" />
        <mxCell id="1" parent="0" />
        <mxCell id="s2HnMFFxVP5VRzAcPLjQ-13" value="" style="rounded=0;whiteSpace=wrap;html=1;fillColor=none;strokeWidth=6;" vertex="1" parent="1">
          <mxGeometry x="-534" y="-117" width="1090" height="330" as="geometry" />
        </mxCell>
        <mxCell id="s2HnMFFxVP5VRzAcPLjQ-1" style="edgeStyle=orthogonalEdgeStyle;rounded=0;orthogonalLoop=1;jettySize=auto;html=1;" edge="1" parent="1" source="s2HnMFFxVP5VRzAcPLjQ-2" target="s2HnMFFxVP5VRzAcPLjQ-4">
          <mxGeometry relative="1" as="geometry" />
        </mxCell>
        <mxCell id="s2HnMFFxVP5VRzAcPLjQ-2" value="pdf 2 images" style="rounded=0;whiteSpace=wrap;html=1;" vertex="1" parent="1">
          <mxGeometry x="-492" y="34" width="120" height="60" as="geometry" />
        </mxCell>
        <mxCell id="s2HnMFFxVP5VRzAcPLjQ-3" style="edgeStyle=orthogonalEdgeStyle;rounded=0;orthogonalLoop=1;jettySize=auto;html=1;" edge="1" parent="1" source="s2HnMFFxVP5VRzAcPLjQ-4" target="s2HnMFFxVP5VRzAcPLjQ-8">
          <mxGeometry relative="1" as="geometry" />
        </mxCell>
        <mxCell id="s2HnMFFxVP5VRzAcPLjQ-4" value="images to query" style="rounded=0;whiteSpace=wrap;html=1;" vertex="1" parent="1">
          <mxGeometry x="-313" y="34" width="120" height="60" as="geometry" />
        </mxCell>
        <mxCell id="s2HnMFFxVP5VRzAcPLjQ-5" value="" style="edgeStyle=orthogonalEdgeStyle;rounded=0;orthogonalLoop=1;jettySize=auto;html=1;entryX=0;entryY=0.5;entryDx=0;entryDy=0;entryPerimeter=0;" edge="1" parent="1" source="s2HnMFFxVP5VRzAcPLjQ-7" target="s2HnMFFxVP5VRzAcPLjQ-24">
          <mxGeometry relative="1" as="geometry">
            <mxPoint x="176" y="64" as="targetPoint" />
          </mxGeometry>
        </mxCell>
        <mxCell id="s2HnMFFxVP5VRzAcPLjQ-6" style="edgeStyle=orthogonalEdgeStyle;rounded=0;orthogonalLoop=1;jettySize=auto;html=1;entryX=0;entryY=0.5;entryDx=0;entryDy=0;" edge="1" parent="1" source="s2HnMFFxVP5VRzAcPLjQ-8" target="s2HnMFFxVP5VRzAcPLjQ-7">
          <mxGeometry relative="1" as="geometry" />
        </mxCell>
        <mxCell id="s2HnMFFxVP5VRzAcPLjQ-7" value="Consolidation" style="rounded=0;whiteSpace=wrap;html=1;" vertex="1" parent="1">
          <mxGeometry x="-34" y="34" width="120" height="60" as="geometry" />
        </mxCell>
        <mxCell id="s2HnMFFxVP5VRzAcPLjQ-8" value="Extracted&lt;br&gt;responses" style="text;html=1;align=center;verticalAlign=middle;whiteSpace=wrap;rounded=0;" vertex="1" parent="1">
          <mxGeometry x="-134" y="49" width="60" height="30" as="geometry" />
        </mxCell>
        <mxCell id="s2HnMFFxVP5VRzAcPLjQ-10" value="llm&lt;br&gt;(gemini 1.5 flash 8b )" style="text;html=1;align=center;verticalAlign=middle;resizable=0;points=[];autosize=1;strokeColor=none;fillColor=none;" vertex="1" parent="1">
          <mxGeometry x="-44" y="114" width="140" height="40" as="geometry" />
        </mxCell>
        <mxCell id="s2HnMFFxVP5VRzAcPLjQ-14" value="&lt;font style=&quot;font-size: 26px;&quot;&gt;streamlit&lt;/font&gt;" style="text;html=1;align=center;verticalAlign=middle;resizable=0;points=[];autosize=1;strokeColor=none;fillColor=none;" vertex="1" parent="1">
          <mxGeometry x="56" y="-111" width="120" height="40" as="geometry" />
        </mxCell>
        <mxCell id="s2HnMFFxVP5VRzAcPLjQ-15" style="edgeStyle=orthogonalEdgeStyle;rounded=0;orthogonalLoop=1;jettySize=auto;html=1;" edge="1" parent="1" source="s2HnMFFxVP5VRzAcPLjQ-16" target="s2HnMFFxVP5VRzAcPLjQ-4">
          <mxGeometry relative="1" as="geometry" />
        </mxCell>
        <mxCell id="s2HnMFFxVP5VRzAcPLjQ-16" value="question.json" style="text;html=1;align=center;verticalAlign=middle;whiteSpace=wrap;rounded=0;" vertex="1" parent="1">
          <mxGeometry x="-283" y="-63" width="60" height="30" as="geometry" />
        </mxCell>
        <mxCell id="s2HnMFFxVP5VRzAcPLjQ-17" value="local" style="text;html=1;align=center;verticalAlign=middle;resizable=0;points=[];autosize=1;strokeColor=none;fillColor=none;fontSize=16;" vertex="1" parent="1">
          <mxGeometry x="-469" y="130" width="60" height="30" as="geometry" />
        </mxCell>
        <mxCell id="s2HnMFFxVP5VRzAcPLjQ-27" value="" style="edgeStyle=none;curved=1;rounded=0;orthogonalLoop=1;jettySize=auto;html=1;fontSize=12;startSize=8;endSize=8;entryX=0;entryY=0.5;entryDx=0;entryDy=0;" edge="1" parent="1" source="s2HnMFFxVP5VRzAcPLjQ-18" target="s2HnMFFxVP5VRzAcPLjQ-29">
          <mxGeometry relative="1" as="geometry">
            <mxPoint x="577" y="64" as="targetPoint" />
          </mxGeometry>
        </mxCell>
        <mxCell id="s2HnMFFxVP5VRzAcPLjQ-18" value="LLM Agent(SQL Alchmey)" style="rounded=0;whiteSpace=wrap;html=1;" vertex="1" parent="1">
          <mxGeometry x="377" y="34" width="80" height="60" as="geometry" />
        </mxCell>
        <mxCell id="s2HnMFFxVP5VRzAcPLjQ-21" style="edgeStyle=none;curved=1;rounded=0;orthogonalLoop=1;jettySize=auto;html=1;fontSize=12;startSize=8;endSize=8;" edge="1" parent="1" source="s2HnMFFxVP5VRzAcPLjQ-22" target="s2HnMFFxVP5VRzAcPLjQ-18">
          <mxGeometry relative="1" as="geometry" />
        </mxCell>
        <mxCell id="s2HnMFFxVP5VRzAcPLjQ-22" value="rules for doc" style="text;html=1;align=center;verticalAlign=middle;resizable=0;points=[];autosize=1;strokeColor=none;fillColor=none;fontSize=16;" vertex="1" parent="1">
          <mxGeometry x="362" y="-106" width="110" height="30" as="geometry" />
        </mxCell>
        <mxCell id="s2HnMFFxVP5VRzAcPLjQ-24" value="SQL lite Database" style="shape=cylinder3;whiteSpace=wrap;html=1;boundedLbl=1;backgroundOutline=1;size=15;" vertex="1" parent="1">
          <mxGeometry x="186" y="24" width="60" height="80" as="geometry" />
        </mxCell>
        <mxCell id="s2HnMFFxVP5VRzAcPLjQ-25" value="" style="shape=flexArrow;endArrow=classic;startArrow=classic;html=1;rounded=0;fontSize=12;startSize=8;endSize=8;curved=1;entryX=0;entryY=0.5;entryDx=0;entryDy=0;exitX=1;exitY=0.5;exitDx=0;exitDy=0;exitPerimeter=0;" edge="1" parent="1" source="s2HnMFFxVP5VRzAcPLjQ-24" target="s2HnMFFxVP5VRzAcPLjQ-18">
          <mxGeometry width="100" height="100" relative="1" as="geometry">
            <mxPoint x="151" y="250" as="sourcePoint" />
            <mxPoint x="251" y="150" as="targetPoint" />
          </mxGeometry>
        </mxCell>
        <mxCell id="s2HnMFFxVP5VRzAcPLjQ-29" value="Resutlt text" style="text;html=1;align=center;verticalAlign=middle;whiteSpace=wrap;rounded=0;" vertex="1" parent="1">
          <mxGeometry x="596" y="51" width="60" height="30" as="geometry" />
        </mxCell>
        <mxCell id="s2HnMFFxVP5VRzAcPLjQ-9" value="llm &lt;br&gt;(gemini 1.5 pro)" style="text;html=1;align=center;verticalAlign=middle;resizable=0;points=[];autosize=1;strokeColor=none;fillColor=none;" vertex="1" parent="1">
          <mxGeometry x="-313" y="129" width="110" height="40" as="geometry" />
        </mxCell>
      </root>
    </mxGraphModel>
  </diagram>
</mxfile>
